<svg xmlns="http://www.w3.org/2000/svg" xmlns:xlink="http://www.w3.org/1999/xlink" width="500" zoomAndPan="magnify" viewBox="0 0 375 374.999991" height="500" preserveAspectRatio="xMidYMid meet" version="1.0"><defs><g/><clipPath id="01ce83ee7b"><path d="M 282 129.550781 L 320 129.550781 L 320 200.800781 L 282 200.800781 Z M 282 129.550781 " clip-rule="nonzero"/></clipPath></defs><rect x="-37.5" width="450" fill="#ffffff" y="-37.499999" height="449.999989" fill-opacity="1"/><rect x="-37.5" width="450" fill="#ffffff" y="-37.499999" height="449.999989" fill-opacity="1"/><g fill="#000000" fill-opacity="1"><g transform="translate(106.102845, 200.481522)"><g><path d="M 53.21875 -83.203125 L 28.546875 0 L 1.203125 0 L 31.5625 -83.203125 Z M 65.1875 -76.1875 L 93 0 L 64.703125 0 L 61.1875 -11.734375 L 46.078125 -11.734375 L 51.640625 -30.359375 L 55.625 -30.359375 L 53.703125 -37.125 Z M 65.1875 -76.1875 "/></g></g></g><g fill="#000000" fill-opacity="1"><g transform="translate(192.931053, 200.481522)"><g><path d="M 60.703125 -56.59375 C 60.703125 -58.851562 59.976562 -60.6875 58.53125 -62.09375 C 57.082031 -63.507812 55.3125 -64.21875 53.21875 -64.21875 L 45.59375 -64.21875 L 45.59375 -83.203125 L 59.859375 -83.203125 C 66.066406 -83.203125 71.25 -82.007812 75.40625 -79.625 C 79.5625 -77.25 82.6875 -74.125 84.78125 -70.25 C 86.875 -66.382812 87.921875 -62.195312 87.921875 -57.6875 C 87.921875 -52.851562 86.585938 -48.335938 83.921875 -44.140625 C 81.265625 -39.953125 77.238281 -36.847656 71.84375 -34.828125 L 90.34375 0 L 60.34375 0 L 45.59375 -30.359375 L 45.59375 -48.859375 L 53.21875 -48.859375 C 55.3125 -48.859375 57.082031 -49.582031 58.53125 -51.03125 C 59.976562 -52.488281 60.703125 -54.34375 60.703125 -56.59375 Z M 31.5625 0 L 8.953125 0 L 8.953125 -83.203125 L 31.5625 -83.203125 Z M 31.5625 0 "/></g></g></g><g clip-path="url(#01ce83ee7b)"><path fill="#3dcfd3" d="M 313.960938 146.1875 C 315.960938 149.539062 315.71875 153.660156 314.179688 157.191406 C 312.644531 160.726562 309.9375 163.769531 307.078125 166.601562 C 299.644531 173.972656 296.648438 178.261719 295.722656 181.265625 C 295.355469 182.449219 294.335938 185.953125 295.246094 190.085938 C 294.515625 188.632812 293.859375 186.757812 293.78125 184.550781 C 293.511719 177.058594 299.398438 171.113281 304.40625 165.628906 C 308.136719 161.542969 312.09375 157.265625 313.136719 152.113281 C 314.171875 146.992188 312.054688 141.289062 307.578125 137.875 C 309.574219 141.226562 309.335938 145.347656 307.796875 148.878906 C 306.261719 152.414062 303.554688 155.457031 300.695312 158.289062 C 293.257812 165.664062 290.269531 169.949219 289.339844 172.949219 C 288.972656 174.132812 287.953125 177.632812 288.863281 181.769531 C 288.132812 180.316406 287.476562 178.4375 287.398438 176.234375 C 287.121094 168.742188 293.007812 162.792969 298.015625 157.308594 C 301.75 153.21875 305.707031 148.945312 306.746094 143.789062 C 307.789062 138.675781 305.671875 132.972656 301.195312 129.558594 C 303.191406 132.910156 302.953125 137.027344 301.414062 140.5625 C 299.878906 144.097656 297.171875 147.140625 294.308594 149.972656 C 286.875 157.34375 283.878906 161.632812 282.957031 164.636719 C 282.472656 166.199219 280.832031 171.847656 284.074219 177.640625 C 285.601562 180.367188 287.707031 182.230469 289.3125 183.382812 C 289.601562 184.230469 289.972656 185.09375 290.457031 185.957031 C 291.984375 188.6875 294.089844 190.546875 295.695312 191.703125 C 295.984375 192.550781 296.355469 193.410156 296.839844 194.273438 C 298.679688 197.566406 301.367188 199.597656 303 200.640625 C 301.957031 199.214844 300.300781 196.480469 300.164062 192.875 C 299.886719 185.382812 305.773438 179.433594 310.785156 173.949219 C 314.515625 169.859375 318.472656 165.582031 319.515625 160.429688 C 320.558594 155.304688 318.4375 149.605469 313.960938 146.1875 Z M 313.960938 146.1875 " fill-opacity="1" fill-rule="nonzero"/></g></svg>