<svg xmlns="http://www.w3.org/2000/svg" xmlns:xlink="http://www.w3.org/1999/xlink" width="500" zoomAndPan="magnify" viewBox="0 0 375 374.999991" height="500" preserveAspectRatio="xMidYMid meet" version="1.0"><defs><g/><clipPath id="6734b1cf43"><path d="M 267 151.949219 L 305.972656 151.949219 L 305.972656 223.199219 L 267 223.199219 Z M 267 151.949219 " clip-rule="nonzero"/></clipPath></defs><rect x="-37.5" width="450" fill="#ffffff" y="-37.499999" height="449.999989" fill-opacity="1"/><rect x="-37.5" width="450" fill="#161616" y="-37.499999" height="449.999989" fill-opacity="1"/><g fill="#3dcfd3" fill-opacity="1"><g transform="translate(68.862094, 224.403758)"><g><path d="M 56.6875 -88.640625 L 30.40625 0 L 1.28125 0 L 33.625 -88.640625 Z M 69.4375 -81.15625 L 99.0625 0 L 68.921875 0 L 65.1875 -12.5 L 49.078125 -12.5 L 55.015625 -32.328125 L 59.265625 -32.328125 L 57.203125 -39.546875 Z M 69.4375 -81.15625 "/></g></g></g><g fill="#3dcfd3" fill-opacity="1"><g transform="translate(161.356923, 224.403758)"><g><path d="M 64.671875 -60.296875 C 64.671875 -62.703125 63.894531 -64.65625 62.34375 -66.15625 C 60.800781 -67.65625 58.914062 -68.40625 56.6875 -68.40625 L 48.5625 -68.40625 L 48.5625 -88.640625 L 63.765625 -88.640625 C 70.378906 -88.640625 75.894531 -87.367188 80.3125 -84.828125 C 84.738281 -82.296875 88.066406 -78.96875 90.296875 -74.84375 C 92.535156 -70.726562 93.65625 -66.265625 93.65625 -61.453125 C 93.65625 -56.296875 92.238281 -51.484375 89.40625 -47.015625 C 86.570312 -42.554688 82.28125 -39.253906 76.53125 -37.109375 L 96.234375 0 L 64.28125 0 L 48.5625 -32.328125 L 48.5625 -52.046875 L 56.6875 -52.046875 C 58.914062 -52.046875 60.800781 -52.816406 62.34375 -54.359375 C 63.894531 -55.910156 64.671875 -57.890625 64.671875 -60.296875 Z M 33.625 0 L 9.53125 0 L 9.53125 -88.640625 L 33.625 -88.640625 Z M 33.625 0 "/></g></g></g><g clip-path="url(#6734b1cf43)"><path fill="#3dcfd3" d="M 299.351562 168.585938 C 301.347656 171.9375 301.109375 176.058594 299.570312 179.589844 C 298.035156 183.125 295.324219 186.167969 292.464844 189 C 285.03125 196.371094 282.035156 200.660156 281.113281 203.664062 C 280.746094 204.847656 279.726562 208.351562 280.636719 212.484375 C 279.902344 211.03125 279.25 209.15625 279.171875 206.949219 C 278.898438 199.457031 284.785156 193.511719 289.796875 188.027344 C 293.527344 183.941406 297.484375 179.664062 298.527344 174.511719 C 299.5625 169.390625 297.445312 163.6875 292.96875 160.273438 C 294.964844 163.625 294.726562 167.746094 293.1875 171.277344 C 291.652344 174.8125 288.941406 177.855469 286.082031 180.6875 C 278.648438 188.0625 275.660156 192.347656 274.726562 195.347656 C 274.363281 196.53125 273.34375 200.03125 274.253906 204.167969 C 273.519531 202.714844 272.867188 200.835938 272.789062 198.632812 C 272.511719 191.140625 278.398438 185.191406 283.40625 179.707031 C 287.140625 175.617188 291.097656 171.34375 292.136719 166.1875 C 293.175781 161.074219 291.058594 155.371094 286.585938 151.957031 C 288.582031 155.308594 288.339844 159.425781 286.804688 162.960938 C 285.269531 166.496094 282.558594 169.539062 279.699219 172.371094 C 272.265625 179.742188 269.269531 184.03125 268.34375 187.035156 C 267.863281 188.597656 266.222656 194.246094 269.464844 200.039062 C 270.992188 202.765625 273.097656 204.628906 274.703125 205.78125 C 274.988281 206.628906 275.359375 207.492188 275.847656 208.355469 C 277.375 211.085938 279.480469 212.945312 281.085938 214.101562 C 281.371094 214.949219 281.746094 215.808594 282.230469 216.671875 C 284.070312 219.964844 286.757812 221.996094 288.390625 223.039062 C 287.347656 221.613281 285.691406 218.878906 285.554688 215.273438 C 285.277344 207.78125 291.164062 201.832031 296.171875 196.347656 C 299.90625 192.257812 303.863281 187.980469 304.902344 182.828125 C 305.949219 177.703125 303.828125 172.003906 299.351562 168.585938 Z M 299.351562 168.585938 " fill-opacity="1" fill-rule="nonzero"/></g></svg>